<?xml version="1.0" encoding="UTF-8" standalone="no"?><!DOCTYPE svg PUBLIC "-//W3C//DTD SVG 1.1//EN" "http://www.w3.org/Graphics/SVG/1.1/DTD/svg11.dtd"><svg width="100%" height="100%" viewBox="0 0 30 30" version="1.1" xmlns="http://www.w3.org/2000/svg" xmlns:xlink="http://www.w3.org/1999/xlink" xml:space="preserve" xmlns:serif="http://www.serif.com/" style="fill-rule:evenodd;clip-rule:evenodd;stroke-linejoin:round;stroke-miterlimit:2;"><g id="surface19018247"><path d="M15,3c-6.629,0 -12,5.371 -12,12c0,6.016 4.434,10.984 10.207,11.852l0,-8.672l-2.969,-0l0,-3.153l2.969,0l0,-2.101c0,-3.473 1.691,-5 4.578,-5c1.387,-0 2.117,0.105 2.461,0.148l0,2.754l-1.969,0c-1.226,0 -1.652,1.164 -1.652,2.473l0,1.726l3.594,0l-0.489,3.153l-3.105,-0l0,8.699c5.855,-0.797 10.375,-5.805 10.375,-11.879c0,-6.629 -5.371,-12 -12,-12Z" style="fill:#e9c082;fill-rule:nonzero;"/></g></svg>