<?xml version="1.0" encoding="UTF-8" standalone="no"?><!DOCTYPE svg PUBLIC "-//W3C//DTD SVG 1.1//EN" "http://www.w3.org/Graphics/SVG/1.1/DTD/svg11.dtd"><svg width="100%" height="100%" viewBox="0 0 30 30" version="1.1" xmlns="http://www.w3.org/2000/svg" xmlns:xlink="http://www.w3.org/1999/xlink" xml:space="preserve" xmlns:serif="http://www.serif.com/" style="fill-rule:evenodd;clip-rule:evenodd;stroke-linejoin:round;stroke-miterlimit:2;"><g id="surface19644790"><path d="M10,3c-3.859,0 -7,3.141 -7,7.004l0,9.996c0,3.859 3.141,7 7.004,7l9.996,0c3.859,0 7,-3.141 7,-7.004l0,-9.996c0,-3.859 -3.141,-7 -7.004,-7l-9.996,0Zm12,4c0.551,0 1,0.449 1,1c0,0.551 -0.449,1 -1,1c-0.551,0 -1,-0.449 -1,-1c0,-0.551 0.449,-1 1,-1Zm-7,2c3.309,0 6,2.691 6,6c0,3.309 -2.691,6 -6,6c-3.309,0 -6,-2.691 -6,-6c0,-3.309 2.691,-6 6,-6Zm0,2c-2.211,0 -4,1.789 -4,4c0,2.211 1.789,4 4,4c2.211,0 4,-1.789 4,-4c0,-2.211 -1.789,-4 -4,-4Z" style="fill:#e9c082;fill-rule:nonzero;"/></g></svg>