<?xml version="1.0" encoding="UTF-8" standalone="no"?><!DOCTYPE svg PUBLIC "-//W3C//DTD SVG 1.1//EN" "http://www.w3.org/Graphics/SVG/1.1/DTD/svg11.dtd"><svg width="100%" height="100%" viewBox="0 0 30 30" version="1.1" xmlns="http://www.w3.org/2000/svg" xmlns:xlink="http://www.w3.org/1999/xlink" xml:space="preserve" xmlns:serif="http://www.serif.com/" style="fill-rule:evenodd;clip-rule:evenodd;stroke-linejoin:round;stroke-miterlimit:2;"><g id="surface19645585"><path d="M24,4l-18,0c-1.105,0 -2,0.895 -2,2l0,18c0,1.105 0.895,2 2,2l18,0c1.105,0 2,-0.895 2,-2l0,-18c0,-1.105 -0.895,-2 -2,-2Zm-13.047,18l-2.949,0l-0,-9.492l2.949,-0l0,9.492Zm-1.504,-10.848c-0.953,0 -1.719,-0.773 -1.719,-1.722c0,-0.95 0.77,-1.719 1.719,-1.719c0.949,-0 1.719,0.773 1.719,1.719c-0,0.949 -0.77,1.722 -1.719,1.722Zm12.555,10.848l-2.949,0l-0,-4.617c-0,-1.102 -0.02,-2.516 -1.532,-2.516c-1.535,0 -1.769,1.199 -1.769,2.438l-0,4.695l-2.949,0l-0,-9.492l2.828,-0l-0,1.297l0.043,-0c0.39,-0.746 1.355,-1.532 2.789,-1.532c2.988,0 3.539,1.965 3.539,4.52l-0,5.207Z" style="fill:#e9c082;fill-rule:nonzero;"/></g></svg>