<?xml version="1.0" encoding="UTF-8" standalone="no"?><!DOCTYPE svg PUBLIC "-//W3C//DTD SVG 1.1//EN" "http://www.w3.org/Graphics/SVG/1.1/DTD/svg11.dtd"><svg width="100%" height="100%" viewBox="0 0 30 30" version="1.1" xmlns="http://www.w3.org/2000/svg" xmlns:xlink="http://www.w3.org/1999/xlink" xml:space="preserve" xmlns:serif="http://www.serif.com/" style="fill-rule:evenodd;clip-rule:evenodd;stroke-linejoin:round;stroke-miterlimit:2;"><g id="surface19020959"><path d="M28,6.938c-0.957,0.425 -1.984,0.71 -3.063,0.839c1.102,-0.66 1.946,-1.707 2.344,-2.953c-1.031,0.614 -2.172,1.059 -3.386,1.297c-0.973,-1.035 -2.36,-1.683 -3.895,-1.683c-2.945,-0 -5.336,2.386 -5.336,5.332c0,0.418 0.051,0.828 0.141,1.214c-4.434,-0.222 -8.364,-2.343 -10.996,-5.574c-0.457,0.789 -0.719,1.703 -0.719,2.684c-0,1.851 0.937,3.484 2.371,4.437c-0.875,-0.027 -1.699,-0.265 -2.418,-0.664l-0,0.067c-0,2.586 1.84,4.742 4.281,5.23c-0.449,0.121 -0.922,0.188 -1.406,0.188c-0.344,-0 -0.68,-0.036 -1.004,-0.098c0.68,2.121 2.648,3.664 4.984,3.707c-1.828,1.43 -4.125,2.281 -6.625,2.281c-0.429,0 -0.855,-0.023 -1.273,-0.074c2.359,1.516 5.164,2.398 8.176,2.398c9.812,0 15.176,-8.128 15.176,-15.179c-0,-0.231 -0.004,-0.461 -0.016,-0.688c1.043,-0.754 1.949,-1.691 2.664,-2.761Z" style="fill:#e9c082;fill-rule:nonzero;"/></g></svg>